<?xml version="1.0" encoding="UTF-8" standalone="no"?>
<svg
   width="128px"
   height="128px"
   viewBox="0 0 128 128"
   version="1.1"
   id="svg12"
   sodipodi:docname="com.github.kdwk.Spidey.svg"
   inkscape:version="1.3 (0e150ed6c4, 2023-07-21)"
   xmlns:inkscape="http://www.inkscape.org/namespaces/inkscape"
   xmlns:sodipodi="http://sodipodi.sourceforge.net/DTD/sodipodi-0.dtd"
   xmlns:xlink="http://www.w3.org/1999/xlink"
   xmlns="http://www.w3.org/2000/svg"
   xmlns:svg="http://www.w3.org/2000/svg">
  <sodipodi:namedview
     id="namedview12"
     pagecolor="#ffffff"
     bordercolor="#000000"
     borderopacity="0.25"
     inkscape:showpageshadow="2"
     inkscape:pageopacity="0.0"
     inkscape:pagecheckerboard="0"
     inkscape:deskcolor="#d1d1d1"
     inkscape:zoom="6.6119912"
     inkscape:cx="22.459195"
     inkscape:cy="60.269287"
     inkscape:window-width="1920"
     inkscape:window-height="1011"
     inkscape:window-x="0"
     inkscape:window-y="0"
     inkscape:window-maximized="1"
     inkscape:current-layer="svg12" />
  <defs
     id="defs8">
    <linearGradient
       id="swatch55"
       inkscape:swatch="solid">
      <stop
         style="stop-color:#c27530;stop-opacity:1;"
         offset="0"
         id="stop55" />
    </linearGradient>
    <linearGradient
       id="linearGradient43"
       inkscape:collect="always">
      <stop
         style="stop-color:#ffffff;stop-opacity:1;"
         offset="0"
         id="stop43" />
      <stop
         style="stop-color:#292929;stop-opacity:1;"
         offset="1"
         id="stop44" />
    </linearGradient>
    <linearGradient
       id="swatch19"
       inkscape:swatch="solid">
      <stop
         style="stop-color:#000000;stop-opacity:1;"
         offset="0"
         id="stop19" />
    </linearGradient>
    <filter
       id="alpha"
       filterUnits="objectBoundingBox"
       x="0"
       y="0"
       width="1"
       height="1">
      <feColorMatrix
         type="matrix"
         in="SourceGraphic"
         values="0 0 0 0 1 0 0 0 0 1 0 0 0 0 1 0 0 0 1 0"
         id="feColorMatrix1" />
    </filter>
    <mask
       id="mask0">
      <g
         filter="url(#alpha)"
         id="g1">
        <rect
           x="0"
           y="0"
           width="128"
           height="128"
           style="fill:rgb(0%,0%,0%);fill-opacity:0.1;stroke:none;"
           id="rect1" />
      </g>
    </mask>
    <clipPath
       id="clip1">
      <rect
         x="0"
         y="0"
         width="192"
         height="152"
         id="rect2" />
    </clipPath>
    <g
       id="surface10632"
       clip-path="url(#clip1)">
      <path
         style="fill:none;stroke-width:0.99;stroke-linecap:butt;stroke-linejoin:miter;stroke:rgb(0%,0%,0%);stroke-opacity:1;stroke-dasharray:0.99,0.99;stroke-miterlimit:4;"
         d="M 123.503906 236 C 123.503906 268.863281 96.863281 295.503906 64 295.503906 C 31.136719 295.503906 4.496094 268.863281 4.496094 236 C 4.496094 203.136719 31.136719 176.496094 64 176.496094 C 96.863281 176.496094 123.503906 203.136719 123.503906 236 Z M 123.503906 236 "
         transform="matrix(1,0,0,1,8,-156)"
         id="path2" />
    </g>
    <mask
       id="mask1">
      <g
         filter="url(#alpha)"
         id="g3">
        <rect
           x="0"
           y="0"
           width="128"
           height="128"
           style="fill:rgb(0%,0%,0%);fill-opacity:0.1;stroke:none;"
           id="rect3" />
      </g>
    </mask>
    <clipPath
       id="clip2">
      <rect
         x="0"
         y="0"
         width="192"
         height="152"
         id="rect4" />
    </clipPath>
    <g
       id="surface10635"
       clip-path="url(#clip2)">
      <path
         style="fill:none;stroke-width:0.99;stroke-linecap:butt;stroke-linejoin:miter;stroke:rgb(0%,0%,0%);stroke-opacity:1;stroke-dasharray:0.99,0.99;stroke-miterlimit:4;"
         d="M 29.195312 180.496094 L 98.804688 180.496094 C 103.609375 180.496094 107.503906 184.046875 107.503906 188.425781 L 107.503906 283.574219 C 107.503906 287.953125 103.609375 291.503906 98.804688 291.503906 L 29.195312 291.503906 C 24.390625 291.503906 20.496094 287.953125 20.496094 283.574219 L 20.496094 188.425781 C 20.496094 184.046875 24.390625 180.496094 29.195312 180.496094 Z M 29.195312 180.496094 "
         transform="matrix(1,0,0,1,8,-156)"
         id="path4" />
    </g>
    <mask
       id="mask2">
      <g
         filter="url(#alpha)"
         id="g5">
        <rect
           x="0"
           y="0"
           width="128"
           height="128"
           style="fill:rgb(0%,0%,0%);fill-opacity:0.1;stroke:none;"
           id="rect5" />
      </g>
    </mask>
    <clipPath
       id="clip3">
      <rect
         x="0"
         y="0"
         width="192"
         height="152"
         id="rect6" />
    </clipPath>
    <g
       id="surface10638"
       clip-path="url(#clip3)">
      <path
         style="fill:none;stroke-width:0.99;stroke-linecap:butt;stroke-linejoin:miter;stroke:rgb(0%,0%,0%);stroke-opacity:1;stroke-dasharray:0.99,0.99;stroke-miterlimit:4;"
         d="M 20.417969 184.496094 L 107.582031 184.496094 C 111.957031 184.496094 115.503906 188.042969 115.503906 192.417969 L 115.503906 279.582031 C 115.503906 283.957031 111.957031 287.503906 107.582031 287.503906 L 20.417969 287.503906 C 16.042969 287.503906 12.496094 283.957031 12.496094 279.582031 L 12.496094 192.417969 C 12.496094 188.042969 16.042969 184.496094 20.417969 184.496094 Z M 20.417969 184.496094 "
         transform="matrix(1,0,0,1,8,-156)"
         id="path6" />
    </g>
    <mask
       id="mask3">
      <g
         filter="url(#alpha)"
         id="g7">
        <rect
           x="0"
           y="0"
           width="128"
           height="128"
           style="fill:rgb(0%,0%,0%);fill-opacity:0.1;stroke:none;"
           id="rect7" />
      </g>
    </mask>
    <clipPath
       id="clip4">
      <rect
         x="0"
         y="0"
         width="192"
         height="152"
         id="rect8" />
    </clipPath>
    <g
       id="surface10641"
       clip-path="url(#clip4)">
      <path
         style="fill:none;stroke-width:0.99;stroke-linecap:butt;stroke-linejoin:miter;stroke:rgb(0%,0%,0%);stroke-opacity:1;stroke-dasharray:0.99,0.99;stroke-miterlimit:4;"
         d="M 16.425781 200.496094 L 111.574219 200.496094 C 115.953125 200.496094 119.503906 204.390625 119.503906 209.195312 L 119.503906 278.804688 C 119.503906 283.609375 115.953125 287.503906 111.574219 287.503906 L 16.425781 287.503906 C 12.046875 287.503906 8.496094 283.609375 8.496094 278.804688 L 8.496094 209.195312 C 8.496094 204.390625 12.046875 200.496094 16.425781 200.496094 Z M 16.425781 200.496094 "
         transform="matrix(1,0,0,1,8,-156)"
         id="path8" />
    </g>
    <linearGradient
       inkscape:collect="always"
       xlink:href="#linearGradient43"
       id="linearGradient44"
       x1="65.000519"
       y1="51.315758"
       x2="75.303398"
       y2="56.027908"
       gradientUnits="userSpaceOnUse" />
    <linearGradient
       inkscape:collect="always"
       xlink:href="#linearGradient43"
       id="linearGradient46"
       gradientUnits="userSpaceOnUse"
       x1="65.000519"
       y1="51.315758"
       x2="75.303398"
       y2="56.027908"
       gradientTransform="matrix(1.1359446,0.41404649,-0.43310921,1.0859474,18.267723,-31.446069)" />
    <linearGradient
       inkscape:collect="always"
       xlink:href="#linearGradient43"
       id="linearGradient47"
       gradientUnits="userSpaceOnUse"
       gradientTransform="matrix(0.76342252,0.74356827,-0.71593084,0.74280308,59.199363,-30.856495)"
       x1="65.000519"
       y1="51.315758"
       x2="75.303398"
       y2="56.027908" />
    <linearGradient
       inkscape:collect="always"
       xlink:href="#linearGradient43"
       id="linearGradient48"
       gradientUnits="userSpaceOnUse"
       gradientTransform="matrix(-0.76342252,0.74356827,0.71593084,0.74280308,68.21781,-30.856491)"
       x1="65.000519"
       y1="51.315758"
       x2="75.303398"
       y2="56.027908" />
    <linearGradient
       inkscape:collect="always"
       xlink:href="#linearGradient43"
       id="linearGradient49"
       gradientUnits="userSpaceOnUse"
       gradientTransform="matrix(-1.1493499,0.45858966,0.43543065,1.1216792,111.21063,-36.449184)"
       x1="65.000519"
       y1="51.315758"
       x2="75.303398"
       y2="56.027908" />
    <linearGradient
       inkscape:collect="always"
       xlink:href="#linearGradient43"
       id="linearGradient50"
       gradientUnits="userSpaceOnUse"
       gradientTransform="matrix(-1.0211605,-0.00776986,-0.01673249,1.0075058,130.51716,-0.39233711)"
       x1="65.000519"
       y1="51.315758"
       x2="75.303398"
       y2="56.027908" />
  </defs>
  <g
     id="surface10578"
     style="display:none">
    <rect
       x="0"
       y="0"
       width="128"
       height="128"
       style="fill:#f0f0f0;fill-opacity:1;stroke:none"
       id="rect9" />
    <use
       xlink:href="#surface10632"
       transform="translate(-8,-16)"
       mask="url(#mask0)"
       id="use9" />
    <use
       xlink:href="#surface10635"
       transform="translate(-8,-16)"
       mask="url(#mask1)"
       id="use10" />
    <use
       xlink:href="#surface10638"
       transform="translate(-8,-16)"
       mask="url(#mask2)"
       id="use11" />
    <use
       xlink:href="#surface10641"
       transform="translate(-8,-16)"
       mask="url(#mask3)"
       id="use12" />
    <path
       style="fill:none;stroke:#619ee8;stroke-width:2;stroke-linecap:butt;stroke-linejoin:miter;stroke-miterlimit:4;stroke-opacity:1"
       d="M 0,289 H 128"
       transform="translate(0,-172)"
       id="path12" />
  </g>
  <path
     style="fill:#000000;stroke:url(#linearGradient44);stroke-opacity:1;stroke-linejoin:round;stroke-linecap:round;stroke-width:8;stroke-dasharray:none"
     d="M 87.667702,9.5714286 41.909317,116.00435"
     id="path15" />
  <path
     style="fill:#000000;stroke:url(#linearGradient46);stroke-width:8;stroke-linecap:round;stroke-linejoin:round;stroke-dasharray:none;stroke-opacity:1"
     d="M 113.70791,15.246506 15.631834,111.88097"
     id="path46" />
  <path
     style="fill:#000000;stroke:url(#linearGradient47);stroke-width:8;stroke-linecap:round;stroke-linejoin:round;stroke-dasharray:none;stroke-opacity:1"
     d="M 119.27439,41.440119 8.1427834,86.47434"
     id="path47" />
  <path
     style="fill:#000000;stroke:url(#linearGradient48);stroke-width:8;stroke-linecap:round;stroke-linejoin:round;stroke-dasharray:none;stroke-opacity:1"
     d="M 8.1427834,41.440119 119.27439,86.47434"
     id="path48" />
  <path
     style="fill:#000000;stroke:url(#linearGradient49);stroke-width:8;stroke-linecap:round;stroke-linejoin:round;stroke-dasharray:none;stroke-opacity:1"
     d="M 14.617445,14.490389 113.55401,112.88967"
     id="path49" />
  <path
     style="fill:#000000;stroke:url(#linearGradient50);stroke-width:8;stroke-linecap:round;stroke-linejoin:round;stroke-dasharray:none;stroke-opacity:1"
     d="M 40.834208,8.5697622 85.779981,116.1571"
     id="path50" />
  <path
     style="fill:#000000;fill-opacity:0;stroke:#d9d9d9;stroke-width:9;stroke-linecap:round;stroke-linejoin:round;stroke-dasharray:none;stroke-opacity:1"
     d="m 40.799729,8.8290386 c 0,0 21.294287,17.0568834 46.623873,0.8566757 m 0,0 c 0,0 8.022321,16.6635557 26.792298,5.3666087 m 0,0 c 0,0 -11.24086,20.765104 5.1259,26.183874 m 0,0 c 0,0 -20.288596,23.578965 0.0535,45.519378 m 0,0 c 0,0 -14.41542,6.406294 -5.78782,26.228095 m 0,0 c 0,0 -20.3145,-13.657715 -27.723673,3.20786 m 0,0 c 0,0 -21.842177,-17.048118 -44.156777,-0.17028 m 0,0 c 0,0 -1.553412,-15.41679 -26.278023,-3.89167 m 0,0 c 0,0 11.156677,-21.621058 -7.3951126,-25.465589 m 0,0 c 0,0 19.6285056,-24.165601 0.15084,-45.356812 m 0,0 c 0,0 10.1687586,-13.807433 6.5708286,-26.917983 m 0,0 h 3e-5 m 0,0 c 0,0 18.509331,8.679992 26.024136,-5.5601574"
     id="path19"
     sodipodi:nodetypes="cccccccccccccccccccccccccc" />
  <path
     style="fill:#000000;fill-opacity:0;stroke:#d9d9d9;stroke-width:7;stroke-linecap:round;stroke-linejoin:round;stroke-dasharray:none;stroke-opacity:1"
     d="M 91.266137,90.855495 C 90.344445,80.769022 96.027138,76.622053 96.027138,76.622053 86.386063,59.210964 100.3318,48.968086 100.3318,48.968086 87.618633,46.044676 92.88489,35.800511 92.88489,35.800511 81.209271,38.303625 78.596739,30.46281 78.596739,30.46281 64.29829,37.779702 49.161822,28.498422 49.161822,28.498422 c -4.9837,9.909472 -15.880516,2.839737 -15.880516,2.839737 0.691913,15.774315 -7.31303,17.548184 -7.31303,17.548184 0,0 10.124447,15.066956 2.284919,30.079845 0,0 11.355087,3.371383 7.911616,13.079396 0,0 14.317759,-4.701785 14.302311,3.843171 0,0 15.992509,-10.343285 27.52524,0.431239 0,0 -0.491741,-7.663171 13.273775,-5.464499 z"
     id="path52"
     sodipodi:nodetypes="ccccccccccccc" />
  <path
     style="fill:#000000;fill-opacity:0;stroke:#d9d9d9;stroke-width:6;stroke-linecap:round;stroke-linejoin:round;stroke-dasharray:none;stroke-opacity:1"
     d="m 77.840463,76.625271 c -3.776233,-0.824502 -6.903677,2.537227 -6.903677,2.537227 -3.382325,-3.214979 -12.740198,-0.160266 -12.740198,-0.160266 -2.398844,-3.166706 -7.72496,-1.728816 -7.72496,-1.728816 0.03411,-5.649866 -5.728388,-6.366881 -5.728388,-6.366881 3.137096,-5.270763 -0.08432,-14.388559 -0.08432,-14.388559 6.60889,-4.277627 5.3834,-7.466217 5.3834,-7.466217 0,0 6.395845,3.76336 8.144613,-0.525209 0,0 5.128519,4.783528 12.986713,0.906244 0,0 -0.523279,3.987346 5.071235,2.758638 0,0 -2.545594,4.827939 3.515558,5.387906 0,0 -4.296293,5.727103 0.649432,13.394136 0,0 -3.43639,0.924909 -2.569408,5.651797 z"
     id="path53" />
  <ellipse
     style="fill:#df1f2d;fill-opacity:1;stroke:#df1f2d;stroke-width:4.0435;stroke-linecap:round;stroke-linejoin:round;stroke-dasharray:none;stroke-opacity:1"
     id="path54"
     cx="64.788513"
     cy="43.341614"
     rx="17.829929"
     ry="15.389659" />
  <path
     sodipodi:type="star"
     style="fill:#df1f2d;fill-opacity:1;stroke:#df1f2d;stroke-width:3;stroke-linecap:round;stroke-linejoin:round;stroke-dasharray:none;stroke-opacity:1"
     id="path55"
     inkscape:flatsided="true"
     sodipodi:sides="6"
     sodipodi:cx="46.812538"
     sodipodi:cy="41.92152"
     sodipodi:r1="28.475819"
     sodipodi:r2="24.660782"
     sodipodi:arg1="0.53344195"
     sodipodi:arg2="1.0570407"
     inkscape:rounded="0"
     inkscape:randomized="0"
     d="M 71.331982,56.401476 46.53225,70.395959 22.012807,55.916003 22.293094,27.441564 47.092826,13.447081 71.61227,27.927037 Z"
     transform="matrix(1.1474623,-0.00776486,0.00868302,1.0261273,10.944922,35.104862)" />
</svg>
