<?xml version="1.0" encoding="UTF-8" standalone="no"?>
<svg
   height="128px"
   viewBox="0 0 128 128"
   width="128px"
   version="1.1"
   id="svg45"
   sodipodi:docname="com.github.kdwk.Spidey.Devel.svg"
   inkscape:version="1.3.2 (091e20ef0f, 2023-11-25)"
   xmlns:inkscape="http://www.inkscape.org/namespaces/inkscape"
   xmlns:sodipodi="http://sodipodi.sourceforge.net/DTD/sodipodi-0.dtd"
   xmlns:xlink="http://www.w3.org/1999/xlink"
   xmlns="http://www.w3.org/2000/svg"
   xmlns:svg="http://www.w3.org/2000/svg">
  <defs
     id="defs45" />
  <sodipodi:namedview
     id="namedview45"
     pagecolor="#ffffff"
     bordercolor="#000000"
     borderopacity="0.25"
     inkscape:showpageshadow="2"
     inkscape:pageopacity="0.0"
     inkscape:pagecheckerboard="0"
     inkscape:deskcolor="#d1d1d1"
     inkscape:zoom="6.2890625"
     inkscape:cx="64"
     inkscape:cy="64"
     inkscape:window-width="1920"
     inkscape:window-height="1011"
     inkscape:window-x="0"
     inkscape:window-y="0"
     inkscape:window-maximized="1"
     inkscape:current-layer="svg45" />
  <filter
     id="a"
     height="1.086671"
     width="1.080828"
     x="-0.040414428"
     y="-0.043333739">
    <feColorMatrix
       color-interpolation-filters="sRGB"
       values="0 0 0 0 1 0 0 0 0 1 0 0 0 0 1 0 0 0 1 0"
       id="feColorMatrix1" />
  </filter>
  <linearGradient
     id="b"
     gradientUnits="userSpaceOnUse">
    <stop
       offset="0"
       stop-color="#f1f1f1"
       id="stop1" />
    <stop
       offset="1"
       stop-color="#5e5e5e"
       id="stop2" />
  </linearGradient>
  <linearGradient
     id="c"
     gradientTransform="matrix(1.360348 0 0 0.974977 -22.604296 4.076756)"
     x1="64.564278"
     x2="75.303398"
     xlink:href="#b"
     y1="50.737671"
     y2="56.027908" />
  <linearGradient
     id="d"
     gradientUnits="userSpaceOnUse">
    <stop
       offset="0"
       stop-color="#f2f2f2"
       id="stop3" />
    <stop
       offset="1"
       stop-color="#5e5e5e"
       id="stop4" />
  </linearGradient>
  <linearGradient
     id="e"
     gradientTransform="matrix(0.789465 0.768933 -0.740353 0.768142 59.310257 -30.705261)"
     x1="64.957626"
     x2="75.303398"
     xlink:href="#d"
     y1="51.523346"
     y2="56.027908" />
  <linearGradient
     id="f"
     gradientTransform="matrix(-0.718839 0.778688 0.674121 0.777887 68.24588 -34.015915)"
     x1="64.957626"
     x2="75.303398"
     xlink:href="#d"
     y1="51.523346"
     y2="56.027908" />
  <linearGradient
     id="g"
     gradientTransform="matrix(-1.289761 0 0 0.96723 148.479904 3.379469)"
     x1="64.564278"
     x2="75.303398"
     xlink:href="#b"
     y1="50.737671"
     y2="56.027908" />
  <radialGradient
     id="h"
     cx="63.26265597105"
     cy="66.30358699258"
     gradientUnits="userSpaceOnUse"
     r="9.21578391268">
    <stop
       offset="0.483766"
       stop-color="#adadad"
       id="stop5" />
    <stop
       offset="1"
       stop-color="#adadad"
       stop-opacity="0"
       id="stop6" />
  </radialGradient>
  <linearGradient
     id="i"
     gradientTransform="matrix(1.875024 0 0 1.810059 -55.241943 -47.044415)"
     gradientUnits="userSpaceOnUse"
     x1="58.764732"
     x2="63.594894"
     y1="57.017033"
     y2="62.05349">
    <stop
       offset="0"
       stop-color="#ee5959"
       id="stop7" />
    <stop
       offset="1"
       stop-color="#f5a2a2"
       id="stop8" />
  </linearGradient>
  <linearGradient
     id="j"
     gradientTransform="matrix(1.875024 0 0 1.810059 -55.241943 -47.044415)"
     gradientUnits="userSpaceOnUse"
     x1="64.216759"
     x2="69.668785"
     y1="62.730633"
     y2="68.688316">
    <stop
       offset="0"
       stop-color="#ff7921"
       id="stop9" />
    <stop
       offset="1"
       stop-color="#ffb47d"
       id="stop10" />
  </linearGradient>
  <linearGradient
     id="k"
     gradientTransform="matrix(1.69685 0 0 1.810059 -39.63359 -39.903405)"
     gradientUnits="userSpaceOnUse"
     x1="55.736752"
     x2="61.074097"
     y1="52.848763"
     y2="58.108307">
    <stop
       offset="0"
       stop-color="#ffbb8f"
       id="stop11" />
    <stop
       offset="1"
       stop-color="#ffe0cc"
       id="stop12" />
  </linearGradient>
  <linearGradient
     id="l"
     gradientTransform="matrix(1.875024 0 0 1.810059 -55.241943 -47.044415)"
     gradientUnits="userSpaceOnUse"
     x1="63.594894"
     x2="69.668785"
     y1="62.05349"
     y2="68.66732">
    <stop
       offset="0"
       stop-color="#c32828"
       id="stop13" />
    <stop
       offset="1"
       stop-color="#e06b6b"
       id="stop14" />
  </linearGradient>
  <clipPath
     id="m">
    <rect
       height="128"
       width="128"
       id="rect14" />
  </clipPath>
  <clipPath
     id="n">
    <rect
       height="128"
       width="128"
       id="rect15" />
  </clipPath>
  <mask
     id="o">
    <g
       filter="url(#a)"
       id="g27">
      <g
         clip-path="url(#n)"
         filter="url(#a)"
         id="g26">
        <g
           clip-path="url(#m)"
           id="g25">
          <path
             d="m 96.65625 13.410156 l -62.25 103.769532"
             stroke="url(#c)"
             stroke-linecap="round"
             stroke-linejoin="round"
             stroke-width="8.06157"
             id="path15" />
          <path
             d="m 121.433594 44.058594 l -114.921875 46.570312"
             stroke="url(#e)"
             stroke-linecap="round"
             stroke-linejoin="round"
             stroke-width="7.23879"
             id="path16" />
          <path
             d="m 11.679688 41.695312 l 104.640624 47.160157"
             stroke="url(#f)"
             stroke-linecap="round"
             stroke-linejoin="round"
             stroke-width="6.9511"
             id="path17" />
          <path
             d="m 35.410156 12.636719 l 59.015625 102.945312"
             stroke="url(#g)"
             stroke-linecap="round"
             stroke-linejoin="round"
             stroke-width="7.81839"
             id="path18" />
          <path
             d="m 72.476562 66.304688 c 0 5.089843 -4.125 9.214843 -9.214843 9.214843 c -5.089844 0 -9.214844 -4.125 -9.214844 -9.214843 c 0 -5.089844 4.125 -9.21875 9.214844 -9.21875 c 5.089843 0 9.214843 4.128906 9.214843 9.21875 z m 0 0"
             fill="url(#h)"
             id="path19" />
          <path
             d="m 100.722656 80.199219 c -11.464844 -20.703125 0.636719 -30.546875 0.636719 -30.546875 c -7.835937 -3.601563 -14.472656 -8.929688 -17.695313 -19.183594 c -17.003906 8.699219 -39.300781 0.359375 -39.300781 0.359375 c -3.722656 11.980469 -7.800781 11.027344 -16.433593 16.605469 c 0 0 8.03125 14.492187 -1.289063 32.34375 c 13.585937 5.367187 13.800781 12.328125 15.523437 20.265625 c -0.6875 0.050781 23.3125 -12.207031 40.375 0.359375 c 3.054688 -9.53125 8.007813 -17.296875 18.183594 -20.203125 z m 0 0"
             fill="none"
             stroke="#d9d9d9"
             stroke-linecap="round"
             stroke-linejoin="round"
             stroke-width="7.13485"
             id="path20" />
          <path
             d="m 96.1875 119.125 c 0.777344 0 -34.265625 -18.828125 -62.023438 -1.378906 m -27.707031 -77.460938 c 20.140625 21.914063 -0.035156 50.539063 -0.035156 50.539063 s 21.851563 4.703125 27.699219 27.046875 m 87.382812 -74.023438 s -20.980468 24.382813 0.054688 47.070313 c 0 0 -20.351563 4.957031 -25.277344 28.132812 m -89.710938 -78.878906 c 32.667969 -10.992187 26.996094 -28.425781 26.996094 -28.425781 s 38.535156 16.828125 64.726563 0.078125 c 0 0 -6.253907 26.144531 23.210937 32.023437"
             fill="none"
             stroke="#d9d9d9"
             stroke-linecap="round"
             stroke-linejoin="round"
             stroke-width="9.30701"
             id="path21" />
          <path
             d="m 54.941406 55.757812 l 20.449219 21.488282 l 26.144531 -42.175782 z m 0 0"
             fill="url(#i)"
             id="path22" />
          <path
             d="m 54.941406 55.757812 l 10.222656 10.742188 l 10.226563 10.746094 l -45.753906 21.570312 z m 0 0"
             fill="url(#j)"
             id="path23" />
          <path
             d="m 29.636719 98.816406 l 34.363281 -33.539062 l -9.058594 -9.519532 z m 0 0"
             fill="url(#k)"
             id="path24" />
          <path
             d="m 101.535156 35.070312 l -37.535156 30.207032 l 11.390625 11.96875 z m 0 0"
             fill="url(#l)"
             id="path25" />
        </g>
      </g>
    </g>
  </mask>
  <mask
     id="p">
    <g
       filter="url(#a)"
       id="g28">
      <rect
         fill-opacity="0.8"
         height="184.32"
         width="184.32"
         x="-28.16"
         y="-28.16"
         id="rect27" />
    </g>
  </mask>
  <linearGradient
     id="q"
     gradientTransform="matrix(0 0.37 -0.98462 0 295.38501 -30.360001)"
     gradientUnits="userSpaceOnUse"
     x1="300"
     x2="428"
     y1="235"
     y2="235">
    <stop
       offset="0"
       stop-color="#f9f06b"
       id="stop28" />
    <stop
       offset="1"
       stop-color="#f5c211"
       id="stop29" />
  </linearGradient>
  <clipPath
     id="r">
    <rect
       height="128"
       width="128"
       id="rect29" />
  </clipPath>
  <clipPath
     id="s">
    <rect
       height="128"
       width="128"
       id="rect30" />
  </clipPath>
  <g
     stroke-linecap="round"
     stroke-linejoin="round"
     id="g33">
    <path
       d="m 96.65625 13.410156 l -62.25 103.769532"
       stroke="url(#c)"
       stroke-width="8.06157"
       id="path30" />
    <path
       d="m 121.433594 44.058594 l -114.921875 46.570312"
       stroke="url(#e)"
       stroke-width="7.23879"
       id="path31" />
    <path
       d="m 11.679688 41.695312 l 104.640624 47.160157"
       stroke="url(#f)"
       stroke-width="6.9511"
       id="path32" />
    <path
       d="m 35.410156 12.636719 l 59.015625 102.945312"
       stroke="url(#g)"
       stroke-width="7.81839"
       id="path33" />
  </g>
  <path
     d="m 72.476562 66.304688 c 0 5.089843 -4.125 9.214843 -9.214843 9.214843 c -5.089844 0 -9.214844 -4.125 -9.214844 -9.214843 c 0 -5.089844 4.125 -9.21875 9.214844 -9.21875 c 5.089843 0 9.214843 4.128906 9.214843 9.21875 z m 0 0"
     fill="url(#h)"
     id="path34" />
  <path
     d="m 100.722656 80.199219 c -11.464844 -20.703125 0.636719 -30.546875 0.636719 -30.546875 c -7.835937 -3.601563 -14.472656 -8.929688 -17.695313 -19.183594 c -17.003906 8.699219 -39.300781 0.359375 -39.300781 0.359375 c -3.722656 11.980469 -7.800781 11.027344 -16.433593 16.605469 c 0 0 8.03125 14.492187 -1.289063 32.34375 c 13.585937 5.367187 13.800781 12.328125 15.523437 20.265625 c -0.6875 0.050781 23.3125 -12.207031 40.375 0.359375 c 3.054688 -9.53125 8.007813 -17.296875 18.183594 -20.203125 z m 0 0"
     fill="none"
     stroke="#d9d9d9"
     stroke-linecap="round"
     stroke-linejoin="round"
     stroke-width="7.13485"
     id="path35" />
  <path
     d="m 96.1875 119.125 c 0.777344 0 -34.265625 -18.828125 -62.023438 -1.378906 m -27.707031 -77.460938 c 20.140625 21.914063 -0.035156 50.539063 -0.035156 50.539063 s 21.851563 4.703125 27.699219 27.046875 m 87.382812 -74.023438 s -20.980468 24.382813 0.054688 47.070313 c 0 0 -20.351563 4.957031 -25.277344 28.132812 m -89.710938 -78.878906 c 32.667969 -10.992187 26.996094 -28.425781 26.996094 -28.425781 s 38.535156 16.828125 64.726563 0.078125 c 0 0 -6.253907 26.144531 23.210937 32.023437"
     fill="none"
     stroke="#d9d9d9"
     stroke-linecap="round"
     stroke-linejoin="round"
     stroke-width="9.30701"
     id="path36" />
  <g
     mask="url(#o)"
     id="g45">
    <g
       clip-path="url(#s)"
       id="g44">
      <g
         mask="url(#p)"
         id="g43">
        <g
           clip-path="url(#r)"
           id="g42">
          <path
             d="m 128 80.640625 v 47.359375 h -128 v -47.359375 z m 0 0"
             fill="url(#q)"
             id="path41" />
          <path
             d="m 13.308594 80.640625 l 47.355468 47.359375 h 21.214844 l -47.359375 -47.359375 z m 42.421875 0 l 47.363281 47.359375 h 21.214844 l -47.363282 -47.359375 z m 42.429687 0 l 29.839844 29.839844 v -21.210938 l -8.628906 -8.628906 z m -98.160156 7.90625 v 21.214844 l 18.238281 18.238281 h 21.214844 z m 0 0"
             id="path42" />
        </g>
      </g>
    </g>
  </g>
  <path
     d="m 54.941406 55.757812 l 20.449219 21.488282 l 26.144531 -42.175782 z m 0 0"
     fill="url(#i)"
     id="path37" />
  <path
     d="m 54.941406 55.757812 l 10.222656 10.742188 l 10.226563 10.746094 l -45.753906 21.570312 z m 0 0"
     fill="url(#j)"
     id="path38" />
  <path
     d="m 29.636719 98.816406 l 34.363281 -33.539062 l -9.058594 -9.519532 z m 0 0"
     fill="url(#k)"
     id="path39" />
  <path
     d="m 101.535156 35.070312 l -37.535156 30.207032 l 11.390625 11.96875 z m 0 0"
     fill="url(#l)"
     id="path40" />
</svg>
