<?xml version="1.0" encoding="UTF-8" standalone="no"?>
<svg
   width="128px"
   height="128px"
   viewBox="0 0 128 128"
   version="1.1"
   id="svg12"
   sodipodi:docname="com.github.kdwk.Spidey.svg"
   inkscape:version="1.3 (0e150ed6c4, 2023-07-21)"
   xmlns:inkscape="http://www.inkscape.org/namespaces/inkscape"
   xmlns:sodipodi="http://sodipodi.sourceforge.net/DTD/sodipodi-0.dtd"
   xmlns:xlink="http://www.w3.org/1999/xlink"
   xmlns="http://www.w3.org/2000/svg"
   xmlns:svg="http://www.w3.org/2000/svg">
  <sodipodi:namedview
     id="namedview12"
     pagecolor="#ffffff"
     bordercolor="#000000"
     borderopacity="0.25"
     inkscape:showpageshadow="2"
     inkscape:pageopacity="0.0"
     inkscape:pagecheckerboard="0"
     inkscape:deskcolor="#d1d1d1"
     inkscape:zoom="6.5828834"
     inkscape:cx="42.914325"
     inkscape:cy="71.777057"
     inkscape:window-width="1920"
     inkscape:window-height="1011"
     inkscape:window-x="0"
     inkscape:window-y="0"
     inkscape:window-maximized="1"
     inkscape:current-layer="svg12" />
  <defs
     id="defs8">
    <linearGradient
       id="linearGradient9"
       inkscape:collect="always">
      <stop
         style="stop-color:#f2f2f2;stop-opacity:1;"
         offset="0"
         id="stop8" />
      <stop
         style="stop-color:#5e5e5e;stop-opacity:1;"
         offset="1"
         id="stop9" />
    </linearGradient>
    <linearGradient
       id="linearGradient5"
       inkscape:collect="always">
      <stop
         style="stop-color:#f1f1f1;stop-opacity:1;"
         offset="0"
         id="stop4" />
      <stop
         style="stop-color:#5e5e5e;stop-opacity:1;"
         offset="1"
         id="stop5" />
    </linearGradient>
    <linearGradient
       id="linearGradient1"
       inkscape:collect="always">
      <stop
         style="stop-color:#adadad;stop-opacity:1;"
         offset="0.48376563"
         id="stop1" />
      <stop
         style="stop-color:#adadad;stop-opacity:0;"
         offset="1"
         id="stop2" />
    </linearGradient>
    <linearGradient
       id="swatch55"
       inkscape:swatch="solid">
      <stop
         style="stop-color:#c27530;stop-opacity:1;"
         offset="0"
         id="stop55" />
    </linearGradient>
    <linearGradient
       id="swatch19"
       inkscape:swatch="solid">
      <stop
         style="stop-color:#000000;stop-opacity:1;"
         offset="0"
         id="stop19" />
    </linearGradient>
    <filter
       id="alpha"
       filterUnits="objectBoundingBox"
       x="0"
       y="0"
       width="1"
       height="1">
      <feColorMatrix
         type="matrix"
         in="SourceGraphic"
         values="0 0 0 0 1 0 0 0 0 1 0 0 0 0 1 0 0 0 1 0"
         id="feColorMatrix1" />
    </filter>
    <mask
       id="mask0">
      <g
         filter="url(#alpha)"
         id="g1">
        <rect
           x="0"
           y="0"
           width="128"
           height="128"
           style="fill:rgb(0%,0%,0%);fill-opacity:0.1;stroke:none;"
           id="rect1" />
      </g>
    </mask>
    <clipPath
       id="clip1">
      <rect
         x="0"
         y="0"
         width="192"
         height="152"
         id="rect2" />
    </clipPath>
    <g
       id="surface10632"
       clip-path="url(#clip1)">
      <path
         style="fill:none;stroke-width:0.99;stroke-linecap:butt;stroke-linejoin:miter;stroke:rgb(0%,0%,0%);stroke-opacity:1;stroke-dasharray:0.99,0.99;stroke-miterlimit:4;"
         d="M 123.503906 236 C 123.503906 268.863281 96.863281 295.503906 64 295.503906 C 31.136719 295.503906 4.496094 268.863281 4.496094 236 C 4.496094 203.136719 31.136719 176.496094 64 176.496094 C 96.863281 176.496094 123.503906 203.136719 123.503906 236 Z M 123.503906 236 "
         transform="matrix(1,0,0,1,8,-156)"
         id="path2" />
    </g>
    <mask
       id="mask1">
      <g
         filter="url(#alpha)"
         id="g3">
        <rect
           x="0"
           y="0"
           width="128"
           height="128"
           style="fill:rgb(0%,0%,0%);fill-opacity:0.1;stroke:none;"
           id="rect3" />
      </g>
    </mask>
    <clipPath
       id="clip2">
      <rect
         x="0"
         y="0"
         width="192"
         height="152"
         id="rect4" />
    </clipPath>
    <g
       id="surface10635"
       clip-path="url(#clip2)">
      <path
         style="fill:none;stroke-width:0.99;stroke-linecap:butt;stroke-linejoin:miter;stroke:rgb(0%,0%,0%);stroke-opacity:1;stroke-dasharray:0.99,0.99;stroke-miterlimit:4;"
         d="M 29.195312 180.496094 L 98.804688 180.496094 C 103.609375 180.496094 107.503906 184.046875 107.503906 188.425781 L 107.503906 283.574219 C 107.503906 287.953125 103.609375 291.503906 98.804688 291.503906 L 29.195312 291.503906 C 24.390625 291.503906 20.496094 287.953125 20.496094 283.574219 L 20.496094 188.425781 C 20.496094 184.046875 24.390625 180.496094 29.195312 180.496094 Z M 29.195312 180.496094 "
         transform="matrix(1,0,0,1,8,-156)"
         id="path4" />
    </g>
    <mask
       id="mask2">
      <g
         filter="url(#alpha)"
         id="g5">
        <rect
           x="0"
           y="0"
           width="128"
           height="128"
           style="fill:rgb(0%,0%,0%);fill-opacity:0.1;stroke:none;"
           id="rect5" />
      </g>
    </mask>
    <clipPath
       id="clip3">
      <rect
         x="0"
         y="0"
         width="192"
         height="152"
         id="rect6" />
    </clipPath>
    <g
       id="surface10638"
       clip-path="url(#clip3)">
      <path
         style="fill:none;stroke-width:0.99;stroke-linecap:butt;stroke-linejoin:miter;stroke:rgb(0%,0%,0%);stroke-opacity:1;stroke-dasharray:0.99,0.99;stroke-miterlimit:4;"
         d="M 20.417969 184.496094 L 107.582031 184.496094 C 111.957031 184.496094 115.503906 188.042969 115.503906 192.417969 L 115.503906 279.582031 C 115.503906 283.957031 111.957031 287.503906 107.582031 287.503906 L 20.417969 287.503906 C 16.042969 287.503906 12.496094 283.957031 12.496094 279.582031 L 12.496094 192.417969 C 12.496094 188.042969 16.042969 184.496094 20.417969 184.496094 Z M 20.417969 184.496094 "
         transform="matrix(1,0,0,1,8,-156)"
         id="path6" />
    </g>
    <mask
       id="mask3">
      <g
         filter="url(#alpha)"
         id="g7">
        <rect
           x="0"
           y="0"
           width="128"
           height="128"
           style="fill:rgb(0%,0%,0%);fill-opacity:0.1;stroke:none;"
           id="rect7" />
      </g>
    </mask>
    <clipPath
       id="clip4">
      <rect
         x="0"
         y="0"
         width="192"
         height="152"
         id="rect8" />
    </clipPath>
    <g
       id="surface10641"
       clip-path="url(#clip4)">
      <path
         style="fill:none;stroke-width:0.99;stroke-linecap:butt;stroke-linejoin:miter;stroke:rgb(0%,0%,0%);stroke-opacity:1;stroke-dasharray:0.99,0.99;stroke-miterlimit:4;"
         d="M 16.425781 200.496094 L 111.574219 200.496094 C 115.953125 200.496094 119.503906 204.390625 119.503906 209.195312 L 119.503906 278.804688 C 119.503906 283.609375 115.953125 287.503906 111.574219 287.503906 L 16.425781 287.503906 C 12.046875 287.503906 8.496094 283.609375 8.496094 278.804688 L 8.496094 209.195312 C 8.496094 204.390625 12.046875 200.496094 16.425781 200.496094 Z M 16.425781 200.496094 "
         transform="matrix(1,0,0,1,8,-156)"
         id="path8" />
    </g>
    <linearGradient
       inkscape:collect="always"
       xlink:href="#linearGradient5"
       id="linearGradient44"
       x1="64.564278"
       y1="50.737671"
       x2="75.303398"
       y2="56.027908"
       gradientUnits="userSpaceOnUse"
       gradientTransform="matrix(1.3154746,0,0,0.94281504,-20.013072,2.7781656)" />
    <linearGradient
       inkscape:collect="always"
       xlink:href="#linearGradient9"
       id="linearGradient47"
       gradientUnits="userSpaceOnUse"
       gradientTransform="matrix(0.76342252,0.74356827,-0.71593084,0.74280308,59.199363,-30.856495)"
       x1="64.957626"
       y1="51.523346"
       x2="75.303398"
       y2="56.027908" />
    <radialGradient
       inkscape:collect="always"
       xlink:href="#linearGradient1"
       id="radialGradient2"
       cx="63.708588"
       cy="63.95723"
       fx="63.708588"
       fy="63.95723"
       r="7.9994931"
       gradientUnits="userSpaceOnUse"
       gradientTransform="matrix(1.1140433,0,0,1.1140433,-7.952749,-8.2988131)" />
    <linearGradient
       inkscape:collect="always"
       xlink:href="#linearGradient5"
       id="linearGradient3"
       gradientUnits="userSpaceOnUse"
       x1="64.564278"
       y1="50.737671"
       x2="75.303398"
       y2="56.027908"
       gradientTransform="matrix(-1.2472152,0,0,0.93532357,145.42757,2.1038801)" />
    <linearGradient
       inkscape:collect="always"
       xlink:href="#linearGradient9"
       id="linearGradient6"
       gradientUnits="userSpaceOnUse"
       gradientTransform="matrix(-0.69512673,0.75300185,0.65188366,0.75222695,67.840228,-34.057941)"
       x1="64.957626"
       y1="51.523346"
       x2="75.303398"
       y2="56.027908" />
  </defs>
  <g
     id="surface10578"
     style="display:none">
    <rect
       x="0"
       y="0"
       width="128"
       height="128"
       style="fill:#f0f0f0;fill-opacity:1;stroke:none"
       id="rect9" />
    <use
       xlink:href="#surface10632"
       transform="translate(-8,-16)"
       mask="url(#mask0)"
       id="use9" />
    <use
       xlink:href="#surface10635"
       transform="translate(-8,-16)"
       mask="url(#mask1)"
       id="use10" />
    <use
       xlink:href="#surface10638"
       transform="translate(-8,-16)"
       mask="url(#mask2)"
       id="use11" />
    <use
       xlink:href="#surface10641"
       transform="translate(-8,-16)"
       mask="url(#mask3)"
       id="use12" />
    <path
       style="fill:none;stroke:#619ee8;stroke-width:2;stroke-linecap:butt;stroke-linejoin:miter;stroke-miterlimit:4;stroke-opacity:1"
       d="M 0,289 H 128"
       transform="translate(0,-172)"
       id="path12" />
  </g>
  <path
     style="display:inline;fill:#000000;fill-opacity:1;stroke:url(#linearGradient44);stroke-width:7.79564;stroke-linecap:round;stroke-linejoin:round;stroke-dasharray:none;stroke-opacity:1"
     d="M 95.311564,11.802253 35.11757,112.14881"
     id="path15" />
  <path
     style="display:inline;fill:#000000;stroke:url(#linearGradient47);stroke-width:7;stroke-linecap:round;stroke-linejoin:round;stroke-dasharray:none;stroke-opacity:1"
     d="M 119.27439,41.440119 8.1427834,86.47434"
     id="path47" />
  <path
     style="display:none;fill:#000000;fill-opacity:0;stroke:#d9d9d9;stroke-width:4;stroke-linecap:round;stroke-linejoin:round;stroke-dasharray:none;stroke-opacity:1"
     d="m 77.840463,76.625271 c -3.776233,-0.824502 -6.903677,2.537227 -6.903677,2.537227 -3.382325,-3.214979 -12.740198,-0.160266 -12.740198,-0.160266 -2.398844,-3.166706 -7.72496,-1.728816 -7.72496,-1.728816 0.03411,-5.649866 -5.728388,-6.366881 -5.728388,-6.366881 3.137096,-5.270763 -0.08432,-14.388559 -0.08432,-14.388559 6.60889,-4.277627 5.3834,-7.466217 5.3834,-7.466217 0,0 6.395845,3.76336 8.144613,-0.525209 0,0 5.128519,4.783528 12.986713,0.906244 0,0 -0.523279,3.987346 5.071235,2.758638 0,0 -2.545594,4.827939 3.515558,5.387906 0,0 -4.296293,5.727103 0.649432,13.394136 0,0 -3.43639,0.924909 -2.569408,5.651797 z"
     id="path53" />
  <path
     style="display:inline;fill:#000000;stroke:url(#linearGradient6);stroke-width:6.7218;stroke-linecap:round;stroke-linejoin:round;stroke-dasharray:none;stroke-opacity:1"
     d="M 13.139514,39.155893 114.32929,84.761457"
     id="path5" />
  <path
     style="display:inline;fill:#000000;fill-opacity:1;stroke:url(#linearGradient3);stroke-width:7.56048;stroke-linecap:round;stroke-linejoin:round;stroke-dasharray:none;stroke-opacity:1"
     d="M 36.087085,11.056263 93.157633,110.60548"
     id="path3" />
  <circle
     style="display:inline;fill:url(#radialGradient2);stroke-width:7.79859;stroke-dasharray:none"
     id="path1"
     cx="63.021374"
     cy="62.952309"
     r="8.9117813"
     inkscape:label="Blur" />
  <path
     style="display:inline;fill:#000000;fill-opacity:0;stroke:#d9d9d9;stroke-width:6.89949;stroke-linecap:round;stroke-linejoin:round;stroke-dasharray:none;stroke-opacity:1"
     d="M 99.246073,76.391289 C 88.159659,56.370022 99.861753,46.851542 99.861753,46.851542 92.28477,43.369315 85.866046,38.215504 82.74811,28.298056 66.306114,36.711857 44.744253,28.64645 44.744253,28.64645 c -3.598506,11.584507 -7.54221,10.665459 -15.890095,16.059257 0,0 7.767846,14.011522 -1.246942,31.275064 13.137014,5.190859 13.347041,11.923488 15.01131,19.598025 -0.664384,0.04853 22.545357,-11.805595 39.042932,0.347817 2.956241,-9.216917 7.744174,-16.728333 17.584615,-19.535324 z"
     id="path52"
     sodipodi:nodetypes="ccccccccc"
     inkscape:label="Inner contour" />
  <path
     style="display:inline;fill:#000000;fill-opacity:0;stroke:#d9d9d9;stroke-width:9;stroke-linecap:round;stroke-linejoin:round;stroke-dasharray:none;stroke-opacity:1"
     d="m 94.861871,114.03098 c 0.751746,4.1e-4 -33.137125,-18.20753 -59.980841,-1.33214 M 8.0884274,37.793687 c 19.4776656,21.191211 -0.034535,48.870304 -0.034535,48.870304 0,0 21.1312246,4.54689 26.7867866,26.155299 M 119.3418,41.236197 c 0,0 -20.288596,23.578965 0.0535,45.519378 0,0 -19.680676,4.791718 -24.443233,27.204785 M 8.1999852,37.683316 C 39.788041,27.052412 34.304428,10.193254 34.304428,10.193254 c 0,0 37.263139,16.275975 62.592725,0.07577 0,0 -6.0502,25.28185 22.444647,30.967175"
     id="path19"
     sodipodi:nodetypes="cccccccccccc"
     inkscape:label="Main contour" />
  <g
     inkscape:groupmode="layer"
     id="layer1"
     inkscape:label="legs"
     style="display:none">
    <rect
       style="fill:#447bbe;fill-opacity:1;stroke-width:1.63571"
       id="rect55"
       width="6.3569775"
       height="20.195925"
       x="36.891712"
       y="23.145689" />
    <rect
       style="fill:#447bbe;fill-opacity:1;stroke-width:1.78295"
       id="rect56"
       width="6.3639269"
       height="11.587594"
       x="17.559761"
       y="47.456142"
       transform="matrix(1,0,0.4072914,0.91329826,0,0)" />
    <rect
       style="fill:#447bbe;fill-opacity:1;stroke-width:2.35976"
       id="rect57"
       width="5.8322387"
       height="18.43502"
       x="172.29099"
       y="-159.60294"
       transform="matrix(1,0,0.92416704,-0.38198859,0,0)" />
    <rect
       style="fill:#447bbe;fill-opacity:1;stroke-width:1.66798"
       id="rect58"
       width="5.9592381"
       height="37.63409"
       x="24.791204"
       y="60.966503"
       ry="0" />
    <rect
       style="fill:#447bbe;fill-opacity:1;stroke-width:1.98606;stroke-dasharray:none"
       id="rect59"
       width="9.3768549"
       height="20.195925"
       x="24.791204"
       y="23.145689" />
    <rect
       style="fill:#447bbe;fill-opacity:1;stroke-width:2.22025"
       id="rect60"
       width="9.2530527"
       height="12.358368"
       x="-1.3461199"
       y="50.612801"
       transform="matrix(1,0,0.51641732,0.85633706,0,0)" />
    <rect
       style="fill:#447bbe;fill-opacity:1;stroke-width:3.02282"
       id="rect61"
       width="9.253068"
       height="19.066898"
       x="166.85699"
       y="-165.0735"
       transform="matrix(1,0,0.92929853,-0.36932944,0,0)" />
    <rect
       style="fill:#447bbe;fill-opacity:1;stroke-width:2.33772"
       id="rect62"
       width="9.2796803"
       height="47.472271"
       x="13.45443"
       y="60.966507"
       ry="0" />
    <rect
       style="fill:#447bbe;fill-opacity:1;stroke-width:1.49657"
       id="rect71"
       width="5.3214569"
       height="20.195925"
       x="-92.76561"
       y="23.145683"
       transform="scale(-1,1)" />
    <rect
       style="fill:#447bbe;fill-opacity:1;stroke-width:1.66086"
       id="rect72"
       width="5.3902645"
       height="11.871248"
       x="-114.79283"
       y="48.617836"
       transform="matrix(-1,0,-0.45306879,0.89147556,0,0)" />
    <rect
       style="fill:#447bbe;fill-opacity:1;stroke-width:2.13614"
       id="rect73"
       width="5.2339864"
       height="16.833183"
       x="29.849449"
       y="-145.73488"
       transform="matrix(-1,0,-0.90829124,-0.41833842,0,0)" />
    <rect
       style="fill:#447bbe;fill-opacity:1;stroke-width:1.45574"
       id="rect74"
       width="5.2573962"
       height="32.492584"
       x="-102.52026"
       y="60.966503"
       ry="0"
       transform="scale(-1,1)" />
    <rect
       style="fill:#447bbe;fill-opacity:1;stroke-width:1.71164"
       id="rect75"
       width="6.960732"
       height="20.195925"
       x="-102.45"
       y="23.145683"
       transform="scale(-1,1)" />
    <rect
       style="fill:#447bbe;fill-opacity:1;stroke-width:1.89155"
       id="rect76"
       width="6.8071561"
       height="12.193114"
       x="-127.25142"
       y="49.936008"
       transform="matrix(-1,0,-0.49666388,0.86794296,0,0)" />
    <rect
       style="fill:#447bbe;fill-opacity:1;stroke-width:2.53566"
       id="rect77"
       width="6.6913633"
       height="18.552773"
       x="35.159599"
       y="-160.62239"
       transform="matrix(-1,0,-0.92516544,-0.37956411,0,0)" />
    <rect
       style="fill:#447bbe;fill-opacity:1;stroke-width:2.00091"
       id="rect78"
       width="6.7983174"
       height="47.472271"
       x="-113.4427"
       y="60.966503"
       ry="0"
       transform="scale(-1,1)"
       inkscape:label="rect78" />
  </g>
  <g
     inkscape:groupmode="layer"
     id="layer2"
     inkscape:label="body"
     style="display:none">
    <ellipse
       style="fill:#df1f2d;fill-opacity:1;stroke:#df1f2d;stroke-width:4.0435;stroke-linecap:round;stroke-linejoin:round;stroke-dasharray:none;stroke-opacity:1"
       id="path54"
       cx="64.788513"
       cy="43.341614"
       rx="17.829929"
       ry="15.389659" />
    <path
       sodipodi:type="star"
       style="fill:#df1f2d;fill-opacity:1;stroke:#df1f2d;stroke-width:3;stroke-linecap:round;stroke-linejoin:round;stroke-dasharray:none;stroke-opacity:1"
       id="path55"
       inkscape:flatsided="true"
       sodipodi:sides="6"
       sodipodi:cx="46.812538"
       sodipodi:cy="41.92152"
       sodipodi:r1="28.475819"
       sodipodi:r2="24.660782"
       sodipodi:arg1="0.53344195"
       sodipodi:arg2="1.0570407"
       inkscape:rounded="0"
       inkscape:randomized="0"
       d="M 71.331982,56.401476 46.53225,70.395959 22.012807,55.916003 22.293094,27.441564 47.092826,13.447081 71.61227,27.927037 Z"
       transform="matrix(1.1474623,-0.00776486,0.00868302,1.0261273,10.944922,35.104862)" />
  </g>
  <circle
     style="fill:#000080;stroke-width:11.619;stroke-dasharray:none"
     id="circle25"
     cx="63.724552"
     cy="75.120171"
     r="30.27257" />
  <circle
     style="fill:#447bbe;stroke-width:11.619;stroke-dasharray:none"
     id="path7"
     cx="63.724552"
     cy="61.958675"
     r="30.27257" />
  <path
     style="fill:#d35f5f;stroke-width:16.7412"
     d="M 58.764732,56.793945 69.668786,68.667319 83.614149,45.366747 Z"
     id="path9"
     sodipodi:nodetypes="cccc" />
  <path
     style="fill:#ffb380;stroke-width:16.7412"
     d="M 58.764732,56.793945 69.668786,68.667319 45.26768,80.582681 Z"
     id="path10"
     sodipodi:nodetypes="cccc" />
</svg>
